<svg xmlns="http://www.w3.org/2000/svg" width="45" height="45" viewBox="0 0 45 45"><path d="M41.378,1.624A5.307,5.307,0,0,0,37.487,0H5.516A5.309,5.309,0,0,0,1.625,1.624,5.307,5.307,0,0,0,0,5.515v31.97a5.307,5.307,0,0,0,1.624,3.891A5.31,5.31,0,0,0,5.516,43h31.97A5.544,5.544,0,0,0,43,37.485V5.515A5.307,5.307,0,0,0,41.378,1.624ZM15.441,15.495a8.448,8.448,0,0,1,6.089-2.45,8.482,8.482,0,0,1,6.117,2.45,7.934,7.934,0,0,1,2.533,5.921,7.932,7.932,0,0,1-2.533,5.92,8.479,8.479,0,0,1-6.117,2.45,8.449,8.449,0,0,1-6.089-2.45,7.933,7.933,0,0,1-2.534-5.92A7.934,7.934,0,0,1,15.441,15.495ZM38.13,36.338a1.631,1.631,0,0,1-.5,1.217,1.668,1.668,0,0,1-1.2.49H6.5a1.674,1.674,0,0,1-1.708-1.707V18.2H8.736a12.055,12.055,0,0,0-.56,3.667,12.293,12.293,0,0,0,3.919,9.169,13.081,13.081,0,0,0,9.434,3.793,13.457,13.457,0,0,0,6.719-1.736,13.071,13.071,0,0,0,4.871-4.718,12.4,12.4,0,0,0,1.792-6.509,12.057,12.057,0,0,0-.56-3.667h3.78V36.338h0Zm0-25A1.913,1.913,0,0,1,36.2,13.269H31.327A1.912,1.912,0,0,1,29.4,11.338V6.719a1.88,1.88,0,0,1,.56-1.358,1.843,1.843,0,0,1,1.372-.574H36.2a1.841,1.841,0,0,1,1.372.574,1.878,1.878,0,0,1,.56,1.358Z" transform="translate(0.999 1)" fill="none" stroke="#fec63e" stroke-width="2"/></svg>