<svg xmlns="http://www.w3.org/2000/svg" width="45" height="45" viewBox="0 0 45 45"><path d="M38.7,0H4.3A4.313,4.313,0,0,0,0,4.3V38.7A4.313,4.313,0,0,0,4.3,43H38.7A4.313,4.313,0,0,0,43,38.7V4.3A4.313,4.313,0,0,0,38.7,0ZM33.755,15.695c-.215,9.89-6.45,16.77-15.91,17.2A15.649,15.649,0,0,1,8.6,30.315a11.414,11.414,0,0,0,8.385-2.365,5.808,5.808,0,0,1-5.375-4.085,8.672,8.672,0,0,0,2.365,0c-2.58-.86-4.3-2.365-4.515-5.8a4.334,4.334,0,0,0,2.365.645C9.89,17.63,8.6,13.545,10.1,10.965a17.037,17.037,0,0,0,11.825,6.02c-1.505-6.02,6.665-9.245,9.89-5.16a14.484,14.484,0,0,0,3.655-1.29A6.079,6.079,0,0,1,33.11,13.76a12.325,12.325,0,0,0,3.01-.86C35.9,13.975,34.83,14.835,33.755,15.695Z" transform="translate(1 1)" fill="none" stroke="#fec63e" stroke-width="2"/></svg>